<svg xmlns="http://www.w3.org/2000/svg" xmlns:xlink="http://www.w3.org/1999/xlink" width="51.014" height="80.693" viewBox="0 0 51.014 80.693"><defs><style>.a{stroke:#e3a6fd;stroke-linecap:round;stroke-width:3px;fill:url(#a);}</style><linearGradient id="a" x1="0.5" x2="0.5" y2="1" gradientUnits="objectBoundingBox"><stop offset="0" stop-color="#ffd9f6"/><stop offset="0.552" stop-color="#fff"/><stop offset="0.966" stop-color="#fffeff"/><stop offset="1" stop-color="#fff"/></linearGradient></defs><path class="a" d="M-732.788-1228.6s20.127,3.425,25.636,0,5.509-10.276,0-13.7-13.218,6.8-19.286,4.5-3.1-8.212-4.986-13.71c-.063-.184-2.4-3.95-7.416-13.981s-7.935-18.167-1.768-26.643,13.986-12.464,24.667-12.464,14.322,3.884,18.055,12.464c1.825,4.2,1.814,11.015,1.814,11.015s-.631,5.4-1.814,10.423c-2.316,9.829-4.752,13.614-9.266,18.084s-9.864.292-10.42-4.178,9.726-9.436,8.195-13.906-11.045,4.694-12.686,0,6.123-18.777,6.123-18.777" transform="translate(745.587 1306.105)"/></svg>