<?xml version="1.0" encoding="UTF-8"?>
<svg width="268px" height="54px" viewBox="0 0 268 54" version="1.1" xmlns="http://www.w3.org/2000/svg" xmlns:xlink="http://www.w3.org/1999/xlink">
    <!-- Generator: Sketch 57.1 (83088) - https://sketch.com -->
    <title>WEEKDAYS</title>
    <desc>Created with Sketch.</desc>
    <g id="Welcome" stroke="none" stroke-width="1" fill="none" fill-rule="evenodd">
        <g id="Artboard" transform="translate(-13.000000, -107.000000)" fill-rule="nonzero">
            <g id="WEEKDAYS" transform="translate(13.728000, 107.456000)">
                <polygon id="W" fill="#091A9E" points="6.272 52.544 9.30810984e-13 0.704 9.728 0.704 12.8 30.912 16.704 0.768 24.32 0.768 28.416 30.72 31.552 0.704 41.152 0.704 34.944 52.544 24.96 52.544 20.544 21.248 16.384 52.544"></polygon>
                <polygon id="E" fill="#53DDCA" points="46.464 52.544 46.464 0.704 69.76 0.704 69.76 8.512 57.92 8.512 57.92 21.376 66.944 21.376 66.944 29.312 57.92 29.312 57.92 44.8 69.888 44.8 69.888 52.544"></polygon>
                <polygon id="E" fill="#36CB63" points="75.072 52.544 75.072 0.704 98.368 0.704 98.368 8.512 86.528 8.512 86.528 21.376 95.552 21.376 95.552 29.312 86.528 29.312 86.528 44.8 98.496 44.8 98.496 52.544"></polygon>
                <polygon id="K" fill="#87D05D" points="103.68 52.544 103.68 0.704 115.136 0.704 115.136 21.888 123.84 0.704 135.04 0.704 125.44 24.128 135.488 52.544 123.84 52.544 116.352 29.632 115.136 31.68 115.136 52.544"></polygon>
                <path d="M138.88,52.544 L138.88,0.704 L152,0.704 C156.522689,0.704 160.042654,1.26932768 162.56,2.4 C165.077346,3.53067232 166.847995,5.30132128 167.872,7.712 C168.896005,10.1226787 169.408,13.2479808 169.408,17.088 L169.408,35.904 C169.408,39.7866861 168.896005,42.9546544 167.872,45.408 C166.847995,47.8613456 165.088012,49.6639942 162.592,50.816 C160.095988,51.9680058 156.608022,52.544 152.128,52.544 L138.88,52.544 Z M150.336,44.608 L152.128,44.608 C153.877342,44.608 155.135996,44.3520026 155.904,43.84 C156.672004,43.3279974 157.151999,42.5600051 157.344,41.536 C157.536001,40.5119949 157.632,39.2320077 157.632,37.696 L157.632,15.104 C157.632,13.5679923 157.514668,12.3306714 157.28,11.392 C157.045332,10.4533286 156.544004,9.7706688 155.776,9.344 C155.007996,8.9173312 153.770675,8.704 152.064,8.704 L150.336,8.704 L150.336,44.608 Z" id="D" fill="#FED92A"></path>
                <path d="M173.12,52.544 L182.912,0.704 L195.968,0.704 L205.632,52.544 L195.072,52.544 L193.344,41.6 L185.728,41.6 L183.936,52.544 L173.12,52.544 Z M186.752,34.752 L192.256,34.752 L189.504,14.528 L186.752,34.752 Z" id="A" fill="#FEA247"></path>
                <polygon id="Y" fill="#FD5E42" points="214.848 52.544 214.848 31.36 204.992 0.704 215.808 0.704 220.736 17.088 225.152 0.704 235.52 0.704 225.856 31.36 225.856 52.544"></polygon>
                <path d="M253.12,53.312 C249.877317,53.312 247.168011,52.7360058 244.992,51.584 C242.815989,50.4319942 241.173339,48.6506787 240.064,46.24 C238.954661,43.8293213 238.336001,40.7040192 238.208,36.864 L248,35.392 C248.042667,37.6106778 248.245332,39.4026598 248.608,40.768 C248.970668,42.1333402 249.482663,43.1146637 250.144,43.712 C250.805337,44.3093363 251.605329,44.608 252.544,44.608 C253.738673,44.608 254.517332,44.2026707 254.88,43.392 C255.242668,42.5813293 255.424,41.7280045 255.424,40.832 C255.424,38.698656 254.912005,36.8960074 253.888,35.424 C252.863995,33.9519926 251.477342,32.4693408 249.728,30.976 L245.248,27.072 C243.285324,25.4079917 241.632007,23.5200106 240.288,21.408 C238.943993,19.2959894 238.272,16.6826822 238.272,13.568 C238.272,9.17331136 239.57332,5.81334496 242.176,3.488 C244.77868,1.16265504 248.319978,-5.68434189e-14 252.8,-5.68434189e-14 C255.573347,-5.68434189e-14 257.802658,0.46932864 259.488,1.408 C261.173342,2.34667136 262.453329,3.57332576 263.328,5.088 C264.202671,6.60267424 264.799998,8.20265824 265.12,9.888 C265.440002,11.5733418 265.621333,13.1839923 265.664,14.72 L255.808,15.936 C255.765333,14.3999923 255.669334,13.0666723 255.52,11.936 C255.370666,10.8053277 255.061336,9.93066976 254.592,9.312 C254.122664,8.69333024 253.397338,8.384 252.416,8.384 C251.349328,8.384 250.570669,8.83199552 250.08,9.728 C249.589331,10.6240045 249.344,11.5199955 249.344,12.416 C249.344,14.3360096 249.802662,15.9039939 250.72,17.12 C251.637338,18.3360061 252.842659,19.6053267 254.336,20.928 L258.624,24.704 C260.885345,26.6240096 262.794659,28.7999878 264.352,31.232 C265.909341,33.6640122 266.688,36.6719821 266.688,40.256 C266.688,42.6880122 266.133339,44.8959901 265.024,46.88 C263.914661,48.8640099 262.346677,50.4319942 260.32,51.584 C258.293323,52.7360058 255.893347,53.312 253.12,53.312 Z" id="S" fill="#FC89C6"></path>
            </g>
        </g>
    </g>
</svg>